<svg width="2293" height="697" viewBox="0 0 2293 697" fill="none" xmlns="http://www.w3.org/2000/svg">
<path d="M348.841 138.215L339.28 153.289C313.897 192.271 276.753 241.545 252.48 281.995C236.662 307.736 229.676 322.814 218.64 344.511C234.455 342.301 249.539 339.73 264.613 336.42C294.409 332.377 324.199 326.858 353.62 320.608L359.505 319.136C375.689 315.092 369.807 319.87 386.726 315.092L409.161 307.736C429.751 302.589 450.349 294.498 470.581 288.249C502.573 279.055 534.945 264.714 565.103 250.739C590.48 238.974 617.328 221.321 639.763 203.305C664.405 183.446 675.81 164.689 675.441 140.79C675.076 114.68 650.065 92.249 626.158 80.849C570.617 54.0054 498.898 31.5742 438.585 31.2054C432.692 31.2054 426.445 31.2054 419.456 31.5742C415.412 39.6649 410.633 47.7522 406.951 55.8428C404.375 58.7834 390.77 80.8491 387.829 81.5834C372.379 104.383 367.231 110.268 355.461 127.549L351.416 134.171L349.944 136.743C349.944 137.111 349.944 137.111 349.21 137.48V137.846L348.841 138.215ZM195.101 347.82C214.595 311.049 231.883 283.467 259.466 236.03C281.535 197.417 308.38 156.602 329.347 122.402C340.752 104.383 350.678 75.3334 355.826 68.7147C361.712 48.121 366.863 41.8711 370.173 35.2491C370.173 34.8836 370.541 34.8836 370.91 34.5147C332.657 37.4553 291.462 42.2366 262.776 46.2836C246.964 48.8553 231.883 54.3742 217.536 58.4179C180.393 68.7147 165.312 78.6428 157.957 84.5239C139.198 99.6054 126.324 98.1335 118.232 93.3522C100.578 78.274 111.615 59.1522 134.785 48.121C154.648 38.5617 173.401 35.9867 194.363 32.3085C216.802 27.5306 241.075 22.7459 264.613 22.7459C294.409 23.1148 341.855 19.0711 386.726 16.8649C390.404 12.8179 394.449 9.14304 399.228 6.20251C404.744 2.52433 410.264 1.78668 413.943 1.78668C423.5 -2.99461 427.545 2.15553 426.81 13.1867L426.076 15.3963C436.378 15.3963 445.939 15.7617 454.762 16.1306C516.554 20.1742 579.081 31.2054 627.63 55.1085C651.534 67.2428 715.533 113.208 710.013 151.821C704.865 191.536 689.781 217.646 653.375 237.502C601.885 266.921 600.413 268.758 542.665 289.721C450.718 322.814 399.596 340.464 300.66 350.027L251.008 356.645C237.399 358.486 224.897 358.486 211.285 358.851L209.813 361.427C196.205 386.064 182.599 418.423 170.091 443.061L158.692 485.351C158.323 485.72 157.957 486.086 157.957 486.454V487.926C147.287 503.735 155.016 540.876 142.139 549.701C135.888 553.748 127.799 555.216 120.807 554.482C110.143 553.379 104.995 537.935 107.571 529.476C111.246 516.607 114.556 505.207 123.014 492.335L123.748 490.129C125.22 486.823 127.799 484.245 131.109 482.039L135.153 473.951L170.825 395.992C172.666 391.214 175.245 386.429 177.452 382.02C181.127 374.295 184.806 367.311 188.481 360.689C147.655 364.736 91.3864 364.367 53.5016 358.851C40.6307 356.645 -16.3794 347.82 4.58355 317.298C10.1068 308.842 6.42129 312.152 15.2545 306.633C25.5499 300.383 40.9996 304.795 40.9996 307.736C40.6307 315.827 36.5863 317.664 48.3505 325.02C57.1838 327.227 52.3983 333.111 61.9625 333.849C74.8334 335.686 84.3977 341.567 96.8997 343.039C119.335 346.348 155.751 352.233 180.393 349.292L195.101 347.82Z" fill="white"/>
<path d="M672.571 336.789C673.305 344.145 675.519 355.176 672.202 360.692C661.541 376.136 651.98 384.592 637.265 397.833C625.125 405.186 614.095 400.035 613.727 387.167C614.83 376.87 621.815 364.736 628.073 355.176C658.231 311.417 703.836 281.63 754.223 261.405C775.558 253.683 806.816 243.755 825.207 250.742C825.945 250.742 826.679 251.108 827.414 251.108C831.093 252.211 836.606 255.151 839.554 259.564C842.498 262.508 844.336 267.289 844.336 269.495C844.336 278.32 829.62 296.336 820.06 298.18C814.171 298.914 809.023 297.811 806.451 294.867C804.244 292.661 807.185 282.733 800.2 282.733C791.373 282.364 784.016 277.586 778.499 276.848C774.086 277.217 769.673 277.952 765.622 278.689C759.371 279.789 753.488 279.789 749.075 280.527C737.304 284.201 725.906 292.292 715.235 298.545C704.205 304.795 693.903 312.52 684.342 322.448C680.666 325.758 676.253 331.27 672.571 336.789Z" fill="white"/>
<path d="M883.835 323.274H885.307C888.248 323.274 893.761 322.905 899.647 322.539C904.057 322.171 904.425 322.539 907.742 322.171L915.831 320.699L924.288 318.127C929.443 316.652 933.853 315.183 937.163 313.711C953.347 306.727 979.092 294.593 987.55 287.971C992.332 284.296 988.284 282.086 987.918 281.717C983.136 279.88 979.83 279.88 979.461 279.88C972.834 280.618 966.218 280.618 950.034 287.605C947.092 289.074 941.207 292.383 937.532 294.22L923.551 300.842C912.152 306.355 901.115 312.608 891.923 318.496C889.351 319.964 886.41 321.436 883.835 323.274ZM869.119 343.867C866.178 343.499 864.341 342.395 863.606 340.555L858.459 344.971C856.245 346.808 852.201 352.324 849.994 356.371C847.788 360.045 848.156 363.355 848.156 364.458C848.156 367.771 852.201 369.608 855.876 371.445C860.665 373.652 869.857 378.067 904.057 374.755C915.462 374.02 928.698 374.755 957.76 368.136C986.446 361.883 1001.9 355.267 1024.33 348.28C1034.63 344.971 1043.82 342.395 1054.86 338.717C1071.04 333.939 1079.5 328.789 1080.97 327.686C1084.65 324.746 1093.85 324.377 1091.26 331.364C1089.43 335.777 1078.76 339.452 1068.83 343.867C1053.02 351.22 1035 358.942 1028.01 361.148C1009.25 368.136 991.594 373.652 970.631 380.27C949.296 385.42 934.956 390.936 916.2 394.245C909.949 395.348 898.174 397.92 890.455 398.658C863.606 401.233 851.466 401.233 841.171 400.495C834.544 400.126 831.603 399.023 826.825 397.186C821.677 395.348 821.308 393.511 817.629 391.305C811.013 387.258 807.696 379.905 807.696 371.445C807.696 366.667 807.331 359.311 811.382 352.689C813.954 349.383 818.733 341.289 826.825 333.571C833.81 326.948 843.743 318.861 852.935 312.977C866.913 304.152 871.326 301.208 878.68 297.164C885.307 293.486 894.499 290.546 912.152 282.086C943.783 267.011 958.494 263.333 976.885 260.027L991.228 257.08C999.689 255.98 1031.32 255.242 1032.79 269.952C1033.16 275.102 1031.32 279.146 1023.6 285.764C1017.34 290.914 1012.93 294.961 1003 300.108C987.918 308.199 959.598 319.23 932.749 329.155C928.698 330.63 923.185 332.467 916.2 334.305C911.418 336.511 906.27 338.717 901.853 340.189C893.761 343.499 877.577 349.383 869.119 343.867Z" fill="white"/>
<path d="M1209.02 306.568C1193.57 307.302 1178.13 308.774 1163.05 312.818C1150.17 316.127 1135.47 317.234 1123.32 321.277C1118.91 322.746 1111.19 327.527 1107.51 330.102C1101.99 333.78 1100.15 339.661 1097.21 346.649C1093.53 355.474 1099.05 362.093 1102.36 366.874C1107.51 374.227 1113.03 374.227 1117.81 376.068C1130.68 380.849 1145.76 387.836 1161.58 385.996C1173.34 384.158 1176.65 382.317 1185.85 380.849C1192.84 380.48 1205.71 375.702 1210.13 369.449C1213.8 364.668 1221.89 360.255 1216.75 347.018C1212.7 336.721 1209.39 320.174 1209.02 306.568ZM1120.38 310.98C1129.94 308.04 1139.14 305.465 1145.39 303.993C1170.4 297.743 1188.79 296.271 1209.39 295.902C1209.76 293.33 1210.49 290.752 1211.23 288.915C1214.17 281.93 1213.07 279.355 1217.48 273.471C1231.46 256.555 1259.41 235.965 1281.48 243.683C1285.52 245.155 1291.04 249.568 1293.61 252.512C1294.72 257.662 1292.51 266.115 1289.57 271.265C1284.42 280.09 1264.93 285.974 1257.57 280.09L1253.89 277.515C1250.95 275.677 1238.81 273.471 1238.44 278.987C1238.08 284.502 1237.34 290.018 1238.08 295.902C1240.28 295.902 1242.49 295.537 1244.69 295.537C1289.93 294.799 1295.82 295.168 1338.48 299.946C1344.37 300.315 1353.56 302.521 1360.92 305.465C1365.7 307.302 1369.01 308.774 1369.01 310.611C1371.22 314.29 1366.07 317.599 1363.12 319.805C1358.71 322.746 1353.2 323.849 1348.05 320.54C1342.16 317.234 1341.42 314.29 1332.97 313.552C1328.56 312.083 1317.89 308.774 1305.02 307.671C1286.26 306.199 1263.82 306.199 1256.1 306.199H1239.55C1241.75 315.389 1245.06 324.218 1248.38 331.94C1252.79 341.502 1254.26 351.799 1247.27 362.827C1243.23 368.715 1236.61 374.964 1229.99 379.008C1217.11 388.571 1195.78 396.658 1167.09 399.602C1143.19 402.546 1118.91 401.443 1106.04 399.236C1094.64 397.027 1084.34 392.614 1075.51 387.102C1065.95 380.849 1059.33 373.861 1058.96 363.933C1058.59 354.005 1065.95 342.236 1079.92 331.205C1088.39 325.321 1090.59 323.483 1102.36 317.234C1107.15 315.024 1106.04 313.921 1112.29 312.818L1120.38 310.98Z" fill="white"/>
<path d="M1388.36 174.986C1405.28 174.252 1421.83 173.149 1438.75 171.677C1445.73 162.118 1453.83 149.98 1462.29 137.477C1463.02 133.433 1464.49 129.755 1465.6 128.283L1472.59 116.518C1477 98.4992 1475.9 83.0522 1485.09 79.3773C1487.3 77.9054 1495.02 75.7025 1500.17 74.5994C1511.2 70.5524 1524.08 80.4805 1522.61 92.6147C1514.51 114.312 1491.71 144.833 1472.96 169.105C1509.36 166.162 1545.78 163.218 1582.19 162.118C1595.06 162.118 1616.76 160.277 1633.68 163.218C1639.2 163.586 1644.72 163.955 1650.6 165.058C1677.81 170.574 1730.41 176.824 1732.25 209.552C1732.25 217.277 1705.4 204.405 1703.56 196.683C1703.19 193.743 1703.56 192.271 1703.93 191.905C1703.19 191.905 1702.09 191.537 1699.88 190.433C1685.91 184.549 1670.09 183.077 1656.48 181.24C1652.8 180.871 1643.24 179.402 1642.14 179.768C1622.65 175.721 1550.56 183.077 1549.46 183.077C1518.19 186.018 1487.3 188.224 1456.4 191.168C1437.28 217.277 1411.53 249.268 1391.67 281.627C1384.32 293.396 1377.69 305.161 1372.18 316.93C1367.03 328.33 1361.88 343.405 1362.25 351.864C1362.62 365.102 1369.97 369.149 1384.69 369.883C1395.35 370.621 1407.49 369.149 1417.42 366.939C1428.08 364.733 1446.1 359.955 1467.43 353.333C1478.84 349.658 1503.85 338.627 1524.81 329.433C1531.43 324.286 1535.85 326.124 1532.54 333.48C1518.92 344.88 1503.85 353.702 1484.72 363.998C1465.97 374.295 1443.53 386.43 1418.15 394.155C1402.34 398.933 1388.36 401.508 1376.96 401.139C1364.45 400.77 1354.53 397.095 1348.27 390.108C1340.92 381.652 1337.97 368.414 1341.65 349.289C1345.7 326.492 1362.62 292.658 1382.48 258.827C1395.72 236.396 1410.43 213.596 1423.67 194.108H1422.93H1423.3C1415.94 196.683 1388.36 199.624 1369.6 201.096C1351.21 205.877 1324.36 206.98 1311.13 201.83C1303.03 200.727 1297.88 195.949 1297.15 189.327V188.224C1298.25 179.768 1309.66 169.471 1319.95 169.105C1332.46 168.737 1369.97 174.618 1382.48 174.618C1385.79 174.618 1387.63 174.618 1388.36 174.986Z" fill="white"/>
<path d="M1659.42 134.136C1663.83 136.711 1667.88 139.283 1661.26 149.211C1649.49 165.024 1645.81 168.702 1631.84 176.055C1631.1 176.424 1617.12 181.574 1609.77 174.586C1607.2 172.011 1608.66 166.864 1607.2 163.921C1603.14 151.786 1622.27 144.802 1636.62 138.914C1642.13 136.343 1640.66 137.811 1643.97 136.343C1652.06 133.402 1656.48 133.033 1659.42 134.136ZM1529.59 324.986C1537.68 308.439 1544.67 292.258 1552.76 281.595C1561.96 267.251 1575.93 265.049 1586.6 263.577C1592.48 262.842 1600.2 268.723 1601.31 274.242C1603.88 280.123 1599.1 285.274 1595.06 289.317C1588.44 296.305 1582.19 299.245 1578.13 302.186C1574.46 306.233 1570.05 308.808 1567.1 311.38C1560.48 317.629 1556.8 322.414 1552.39 330.505C1546.14 342.27 1545.03 348.889 1547.61 359.186C1551.29 375.364 1571.15 373.157 1583.29 370.955C1606.83 365.804 1630.37 362.495 1652.8 354.773C1668.24 349.623 1683.69 342.27 1697.3 334.548C1704.66 333.076 1712.01 335.283 1706.87 340.064C1670.82 363.598 1620.8 391.545 1574.46 397.795C1553.12 400.739 1526.64 397.795 1519.29 375.364C1514.14 359.555 1520.76 343.742 1529.59 324.986Z" fill="white"/>
<path d="M1857.54 450.942L1852.76 455.354C1813.03 489.185 1763.39 547.285 1729.91 585.897C1707.84 612.007 1704.9 625.613 1704.53 629.657C1733.96 600.976 1721.82 618.257 1747.94 587.738C1792.81 535.885 1822.6 503.891 1857.54 450.942ZM1968.62 368.204C1956.11 374.451 1948.02 377.764 1939.92 384.013L1904.62 412.332C1862.69 482.935 1824.8 528.532 1764.49 595.825C1753.45 609.063 1741.32 622.3 1728.44 635.541C1726.6 637.013 1671.44 703.2 1651.94 695.85C1647.16 694.378 1646.06 689.597 1646.79 683.713C1647.9 673.05 1649.73 662.754 1652.68 656.131C1658.19 643.628 1660.77 635.91 1704.53 581.854C1727.34 553.907 1774.78 507.204 1803.1 481.832C1821.12 465.651 1839.52 450.573 1859.38 435.129L1878.14 419.682C1892.48 395.782 1903.88 371.145 1909.4 345.404C1910.87 337.679 1894.68 328.489 1891.74 329.223C1886.59 330.695 1881.45 330.326 1877.4 331.064C1866 332.901 1859.38 335.842 1847.24 340.623C1831.43 347.611 1803.48 357.539 1777.36 368.204C1758.24 375.926 1744.63 382.545 1726.97 386.589C1710.79 390.267 1695.71 393.942 1686.15 388.795C1677.32 383.648 1676.58 375.926 1676.58 368.939C1676.95 360.479 1683.94 352.392 1694.97 340.623C1715.94 319.295 1755.29 293.189 1797.22 276.639C1833.27 262.664 1849.81 257.517 1868.94 251.264C1877.03 248.692 1901.31 250.898 1909.03 251.633C1914.18 252.736 1914.91 254.204 1916.75 258.62L1918.59 275.536C1918.59 283.992 1916.38 287.67 1910.13 290.979C1902.78 294.289 1893.58 296.13 1887.7 290.979C1881.45 285.095 1863.79 274.064 1850.18 280.683C1838.05 286.567 1831.79 284.361 1807.89 295.761C1779.94 308.633 1758.24 323.339 1742.42 335.842C1735.8 340.992 1733.23 344.667 1728.81 349.079C1726.6 351.658 1724.76 354.598 1723.66 357.17C1722.93 359.007 1722.19 360.848 1728.07 361.213C1735.8 361.582 1742.05 360.479 1748.67 359.007C1757.87 357.17 1760.08 356.067 1771.11 353.126C1792.07 347.611 1808.62 340.992 1824.8 334.004C1843.19 326.279 1859.38 320.398 1882.92 312.676C1901.31 305.689 1936.61 297.598 1944.34 318.926C1949.12 332.532 1934.77 360.848 1922.64 381.442L1936.61 373.351C1945.08 368.204 1956.84 360.848 1982.22 349.448C1989.94 345.036 1995.09 341.361 2005.02 337.679C2016.06 333.27 2022.31 328.858 2029.67 327.017C2031.87 326.648 2031.87 326.279 2035.91 326.279C2040.7 326.279 2048.42 332.901 2048.06 338.417C2047.69 341.726 2045.11 345.404 2040.7 347.976C2034.08 351.658 2029.67 348.714 2020.47 352.023C2015.69 353.495 2011.64 352.761 2004.29 353.86C1999.87 355.332 1994.73 356.436 1990.31 357.907C1987.73 358.642 1985.53 359.745 1981.48 361.582C1975.97 364.157 1974.5 365.26 1968.62 368.204Z" fill="white"/>
<path d="M2084.25 316.481H2085.72C2088.66 316.481 2094.18 316.112 2100.06 315.746C2104.47 315.378 2104.84 315.746 2108.16 315.378L2116.24 313.906L2124.7 311.334C2129.86 309.859 2134.27 308.39 2137.58 306.918C2153.76 299.934 2179.51 287.8 2187.96 281.178C2192.74 277.503 2188.7 275.293 2188.33 274.924C2183.55 273.087 2180.24 273.087 2179.87 273.087C2173.25 273.825 2166.63 273.825 2150.45 280.812C2147.51 282.281 2141.62 285.59 2137.95 287.427L2123.96 294.05C2112.57 299.562 2101.53 305.815 2092.34 311.703C2089.77 313.171 2086.82 314.643 2084.25 316.481ZM2069.53 337.074C2066.59 336.706 2064.75 335.603 2064.02 333.762L2058.87 338.178C2056.66 340.015 2052.61 345.531 2050.41 349.578C2048.2 353.252 2048.57 356.562 2048.57 357.665C2048.57 360.978 2052.61 362.815 2056.29 364.652C2061.08 366.859 2070.27 371.274 2104.47 367.962C2115.88 367.227 2129.12 367.962 2158.17 361.343C2186.86 355.09 2202.31 348.474 2224.75 341.487C2235.04 338.178 2244.23 335.603 2255.27 331.924C2271.46 327.146 2279.91 321.996 2281.38 320.893C2285.06 317.953 2294.26 317.584 2291.68 324.571C2289.84 328.984 2279.18 332.659 2269.24 337.074C2253.43 344.427 2235.41 352.149 2228.42 354.356C2209.66 361.343 2192.01 366.859 2171.04 373.481C2149.71 378.627 2135.37 384.143 2116.61 387.452C2110.36 388.556 2098.59 391.127 2090.87 391.865C2064.02 394.44 2051.88 394.44 2041.59 393.702C2034.97 393.333 2032.02 392.23 2027.24 390.393C2022.09 388.556 2021.72 386.718 2018.04 384.512C2011.42 380.465 2008.11 373.112 2008.11 364.652C2008.11 359.874 2007.74 352.518 2011.8 345.896C2014.37 342.59 2019.15 334.496 2027.24 326.778C2034.22 320.156 2044.16 312.068 2053.35 306.184C2067.33 297.359 2071.74 294.415 2079.09 290.371C2085.72 286.693 2094.91 283.753 2112.57 275.293C2144.2 260.218 2158.91 256.54 2177.3 253.234L2191.64 250.287C2200.1 249.187 2231.73 248.45 2233.2 263.159C2233.57 268.309 2231.73 272.353 2224.01 278.971C2217.75 284.121 2213.34 288.168 2203.41 293.315C2188.33 301.406 2160.01 312.437 2133.16 322.362C2129.12 323.837 2123.6 325.674 2116.61 327.512C2111.83 329.718 2106.68 331.924 2102.27 333.396C2094.18 336.706 2077.99 342.59 2069.53 337.074Z" fill="white"/>
<path d="M882.54 593.753V660.252H874.488V608.362L850.695 646.763H847.036L823.243 608.362V660.252H815.281V593.753H823.243L848.911 634.961L874.488 593.753H882.54Z" fill="white"/>
<path d="M1004.03 627.001C1004.03 612.483 992.978 600.402 978.457 600.402C964.03 600.402 952.974 612.483 952.974 627.001C952.974 641.516 964.03 653.6 978.457 653.6C992.978 653.6 1004.03 641.516 1004.03 627.001ZM944.922 627.001C944.922 608.174 959.537 592.814 978.457 592.814C997.472 592.814 1012.09 608.174 1012.09 627.001C1012.09 645.824 997.472 661.188 978.457 661.188C959.537 661.188 944.922 645.824 944.922 627.001Z" fill="white"/>
<path d="M1113.44 601.339H1097.13V660.25H1089.08V601.339H1072.78V593.751H1113.44V601.339Z" fill="white"/>
<path d="M1233.25 627.001C1233.25 612.483 1222.19 600.402 1207.67 600.402C1193.24 600.402 1182.19 612.483 1182.19 627.001C1182.19 641.516 1193.24 653.6 1207.67 653.6C1222.19 653.6 1233.25 641.516 1233.25 627.001ZM1174.13 627.001C1174.13 608.174 1188.75 592.814 1207.67 592.814C1226.68 592.814 1241.3 608.174 1241.3 627.001C1241.3 645.824 1226.68 661.188 1207.67 661.188C1188.75 661.188 1174.13 645.824 1174.13 627.001Z" fill="white"/>
<path d="M1310.52 630.372H1326.25C1333.56 630.372 1340.03 624.94 1340.03 615.854C1340.03 606.767 1333.56 601.339 1326.25 601.339H1310.52V630.372ZM1325.13 637.96H1310.52V660.25H1302.55V593.751H1326.25C1337.59 593.751 1347.99 602.087 1347.99 615.854C1347.99 626.627 1341.62 634.027 1333.47 636.833L1348.46 660.25H1339.28L1325.13 637.96Z" fill="white"/>
<path d="M1418.71 641.707C1419.27 649.761 1425.55 653.603 1432.01 653.603C1439.7 653.603 1444.38 649.573 1444.38 644.047C1444.38 637.023 1438.01 633.65 1430.05 629.626C1418.34 623.346 1412.06 619.041 1412.06 609.113C1412.06 599.463 1420.49 592.814 1430.99 592.814C1441.95 592.814 1449.44 600.962 1450 610.984H1441.95C1441.38 604.804 1437.08 600.402 1430.99 600.402C1424.99 600.402 1420.12 604.057 1420.12 609.485C1420.12 616.419 1425.36 618.759 1432.68 622.32C1444.38 628.312 1452.34 633.838 1452.34 644.326C1452.34 654.817 1443.54 661.188 1432.01 661.188C1419.84 661.188 1411.22 652.758 1410.66 641.707H1418.71Z" fill="white"/>
</svg>
